<?xml version="1.0" encoding="utf-8"?>
<!-- Generator: Adobe Illustrator 16.0.0, SVG Export Plug-In . SVG Version: 6.00 Build 0)  -->
<!DOCTYPE svg PUBLIC "-//W3C//DTD SVG 1.1//EN" "http://www.w3.org/Graphics/SVG/1.1/DTD/svg11.dtd">
<svg version="1.1" id="Layer_1" xmlns="http://www.w3.org/2000/svg" xmlns:xlink="http://www.w3.org/1999/xlink" x="0px" y="0px"
	 width="500px" height="280px" viewBox="0 0 500 280" enable-background="new 0 0 500 280" xml:space="preserve">
<g>
	<g>
		<g>
			<g>
				
					<rect x="328.524" y="92.968" transform="matrix(0.7073 0.7069 -0.7069 0.7073 163.4129 -205.2481)" fill="#9D9D9D" width="2.108" height="3.513"/>
			</g>
			<g>
				<path fill="#9D9D9D" d="M336.554,89.237l-1.489-1.489l4.989-4.99l1.491,1.489L336.554,89.237z M346.534,79.258l-1.489-1.49
					l4.99-4.99l1.489,1.491L346.534,79.258z M356.514,69.276l-1.489-1.489l4.99-4.988l1.489,1.49L356.514,69.276z M366.492,59.297
					l-1.489-1.489l4.99-4.989l1.489,1.49L366.492,59.297z"/>
			</g>
			<g>
				<polygon fill="#9D9D9D" points="376.474,49.317 374.982,47.826 377.775,45.035 381.725,45.035 381.725,47.143 378.647,47.143 
									"/>
			</g>
			<g>
				<path fill="#9D9D9D" d="M412.841,47.143h-7.779v-2.107h7.779V47.143z M397.283,47.143h-7.779v-2.107h7.779V47.143z"/>
			</g>
			<g>
				<rect x="420.621" y="45.035" fill="#9D9D9D" width="3.513" height="2.107"/>
			</g>
		</g>
		<g>
			<g>
				<path fill="#9D9D9D" d="M393.443,131.85c-2.777-0.109-3.621-0.367-4.081-0.748l1.342-1.625c-0.046-0.039-0.08-0.054-0.08-0.054
					c0.048,0.022,0.544,0.229,2.901,0.321L393.443,131.85z"/>
			</g>
			<g>
				<path fill="#9D9D9D" d="M400.358,131.846l-0.052-2.107c2.388-0.059,4.817-0.157,6.828-0.25l0.099,2.104
					C405.209,131.688,402.764,131.786,400.358,131.846z M414.172,129.559l-1.49-1.489l4.847-4.845l1.49,1.49L414.172,129.559z
					 M423.862,119.869l-1.489-1.489l4.846-4.847l1.49,1.489L423.862,119.869z M433.554,110.178l-1.491-1.491l4.847-4.845l1.49,1.49
					L433.554,110.178z M443.246,100.487l-1.49-1.489l4.845-4.846l1.489,1.49L443.246,100.487z M452.937,90.796l-1.491-1.49
					l4.847-4.847l1.49,1.491L452.937,90.796z"/>
			</g>
			<g>
				
					<rect x="462.065" y="77.367" transform="matrix(0.7073 0.7069 -0.7069 0.7073 191.4679 -304.2105)" fill="#9D9D9D" width="2.108" height="3.513"/>
			</g>
		</g>
		<g>
			<g>
				
					<rect x="154.878" y="87.978" transform="matrix(0.7071 0.7071 -0.7071 0.7071 108.8314 -84.6798)" fill="#9D9D9D" width="3.511" height="2.107"/>
			</g>
			<g>
				<path fill="#9D9D9D" d="M149.681,83.568l-4.968-4.968l1.491-1.489l4.967,4.967L149.681,83.568z M139.747,73.635l-4.967-4.967
					l1.489-1.49l4.967,4.967L139.747,73.635z M129.813,63.701l-4.966-4.967l1.489-1.49l4.967,4.968L129.813,63.701z M119.879,53.768
					l-4.966-4.966l1.491-1.491l4.966,4.967L119.879,53.768z M109.946,43.834l-4.966-4.967l1.491-1.489l4.964,4.967L109.946,43.834z
					 M100.015,33.901l-4.967-4.967l1.489-1.491l4.968,4.967L100.015,33.901z"/>
			</g>
			<g>
				
					<rect x="87.827" y="20.927" transform="matrix(0.7071 0.7071 -0.7071 0.7071 41.7808 -56.9068)" fill="#9D9D9D" width="3.512" height="2.108"/>
			</g>
		</g>
		<g>
			<g>
				
					<rect x="267.758" y="192.04" transform="matrix(0.7072 0.707 -0.707 0.7072 215.4122 -134.0081)" fill="#9D9D9D" width="3.511" height="2.108"/>
			</g>
			<g>
				<path fill="#9D9D9D" d="M311.342,236.413l-5.167-5.167l1.49-1.49l5.167,5.168L311.342,236.413z M301.01,226.08l-5.168-5.166
					l1.49-1.491l5.167,5.168L301.01,226.08z M290.677,215.747l-5.168-5.166L287,209.09l5.166,5.168L290.677,215.747z
					 M280.344,205.416l-5.167-5.168l1.489-1.491l5.168,5.168L280.344,205.416z"/>
			</g>
			<g>
				
					<rect x="316.738" y="241.023" transform="matrix(0.707 0.7072 -0.7072 0.707 264.536 -154.3177)" fill="#9D9D9D" width="3.513" height="2.106"/>
			</g>
		</g>
		<g>
			<g>
				<rect x="327.281" y="116.128" fill="#9D9D9D" width="2.108" height="3.512"/>
			</g>
			<g>
				<path fill="#9D9D9D" d="M369.512,252.711l-4.811-4.811l1.489-1.49l4.812,4.812L369.512,252.711z M359.89,243.09l-4.812-4.812
					l1.489-1.489l4.813,4.811L359.89,243.09z M350.266,233.467l-4.811-4.812l1.489-1.489l4.813,4.812L350.266,233.467z
					 M340.644,223.846l-4.811-4.813l1.489-1.49l4.813,4.813L340.644,223.846z M331.021,214.223l-3.739-3.739v-2.389h2.108v1.516
					l3.12,3.121L331.021,214.223z M329.39,201.29h-2.108v-6.806h2.108V201.29z M329.39,187.682h-2.108v-6.805h2.108V187.682z
					 M329.39,174.073h-2.108v-6.805h2.108V174.073z M329.39,160.465h-2.108v-6.804h2.108V160.465z M329.39,146.857h-2.108v-6.806
					h2.108V146.857z M329.39,133.248h-2.108v-6.804h2.108V133.248z"/>
			</g>
			<g>
				
					<rect x="374.554" y="256.968" transform="matrix(0.7071 0.7071 -0.7071 0.7071 292.6669 -190.5184)" fill="#9D9D9D" width="3.512" height="2.107"/>
			</g>
		</g>
		<g>
			<g>
				
					<rect x="397.209" y="177.606" transform="matrix(0.7068 0.7074 -0.7074 0.7068 243.346 -229.8442)" fill="#9D9D9D" width="3.512" height="2.107"/>
			</g>
			<g>
				<path fill="#9D9D9D" d="M438.595,247.85h-2.107v-6.952h2.107V247.85z M438.595,233.946h-2.107v-6.95h2.107V233.946z
					 M438.595,220.045h-2.107v-2.373l-2.619-2.62l1.489-1.489l3.237,3.235V220.045z M428.952,210.138l-4.915-4.917l1.489-1.489
					l4.917,4.917L428.952,210.138z M419.123,200.307l-4.916-4.914l1.491-1.49l4.914,4.915L419.123,200.307z M409.292,190.477
					l-4.914-4.915l1.489-1.489l4.914,4.914L409.292,190.477z"/>
			</g>
			<g>
				<rect x="436.487" y="254.8" fill="#9D9D9D" width="2.107" height="3.513"/>
			</g>
		</g>
		<g>
			<g>
				<rect x="163.066" y="124.008" fill="#9D9D9D" width="2.107" height="3.513"/>
			</g>
			<g>
				<path fill="#9D9D9D" d="M124.166,242.671h-2.107v-7.341h2.107V242.671z M124.363,228.944l-1.491-1.49l5.191-5.191l1.489,1.489
					L124.363,228.944z M134.743,218.561l-1.49-1.489l5.192-5.19l1.489,1.49L134.743,218.561z M145.125,208.18l-1.489-1.49
					l5.189-5.19l1.49,1.49L145.125,208.18z M155.507,197.799l-1.489-1.49l5.188-5.191l1.49,1.49L155.507,197.799z M165.174,186.247
					h-2.107v-7.339h2.107V186.247z M165.174,171.566h-2.107v-7.341h2.107V171.566z M165.174,156.883h-2.107v-7.34h2.107V156.883z
					 M165.174,142.203h-2.107v-7.342h2.107V142.203z"/>
			</g>
			<g>
				<rect x="122.059" y="250.014" fill="#9D9D9D" width="2.107" height="3.512"/>
			</g>
		</g>
		<g>
			<g>
				<rect x="240.595" y="101.34" fill="#9D9D9D" width="2.107" height="3.512"/>
			</g>
			<g>
				<path fill="#9D9D9D" d="M242.702,94.714h-2.107v-6.629h2.107V94.714z M242.702,81.458h-2.107v-6.627h2.107V81.458z
					 M242.702,68.205h-2.107v-1.667l4.127-4.126l1.49,1.489l-3.51,3.511V68.205z M250.897,59.216l-1.491-1.489l4.688-4.686
					l1.489,1.489L250.897,59.216z M260.27,49.844l-1.489-1.49l4.687-4.686l1.489,1.489L260.27,49.844z M269.642,40.471l-1.489-1.491
					l4.687-4.685l1.489,1.49L269.642,40.471z"/>
			</g>
			<g>
				
					<rect x="278.458" y="27.356" transform="matrix(0.7071 0.7071 -0.7071 0.7071 102.4521 -189.1185)" fill="#9D9D9D" width="2.108" height="3.511"/>
			</g>
		</g>
		<g>
			<g>
				
					<rect x="89.666" y="159.43" transform="matrix(0.707 0.7072 -0.7072 0.707 140.291 -17.6304)" fill="#9D9D9D" width="3.511" height="2.107"/>
			</g>
			<g>
				<path fill="#9D9D9D" d="M84.729,155.281l-4.705-4.706l1.489-1.49l4.706,4.706L84.729,155.281z M75.315,145.869l-4.706-4.706
					l1.49-1.489l4.706,4.705L75.315,145.869z M65.903,136.455l-4.706-4.705l1.49-1.491l4.706,4.707L65.903,136.455z M56.49,127.042
					l-4.705-4.706l1.489-1.49l4.707,4.707L56.49,127.042z M47.078,117.63l-4.707-4.706l1.49-1.49l4.707,4.707L47.078,117.63z
					 M37.666,108.218l-2.771-2.771v-3.61h2.107v2.738l2.152,2.153L37.666,108.218z M37.003,95.182h-2.107v-6.656h2.107V95.182z
					 M37.003,81.869h-2.107v-6.656h2.107V81.869z M37.003,68.558h-2.107V61.9h2.107V68.558z"/>
			</g>
			<g>
				<rect x="34.896" y="51.733" fill="#9D9D9D" width="2.107" height="3.513"/>
			</g>
		</g>
		<g>
			<g>
				
					<rect x="98.04" y="154.953" transform="matrix(0.7069 0.7073 -0.7073 0.7069 139.8929 -24.158)" fill="#9D9D9D" width="2.108" height="3.511"/>
			</g>
			<g>
				<path fill="#9D9D9D" d="M44.59,247.779h-2.107v-7.021h2.107V247.779z M44.59,233.737h-2.107v-7.021h2.107V233.737z
					 M44.59,219.696h-2.107v-7.021h2.107V219.696z M48.955,208.336l-1.49-1.49l4.965-4.964l1.49,1.489L48.955,208.336z
					 M58.884,198.408l-1.489-1.49l4.963-4.963l1.49,1.489L58.884,198.408z M68.813,188.479l-1.49-1.489l4.964-4.965l1.489,1.491
					L68.813,188.479z M78.74,178.551l-1.49-1.49l4.964-4.963l1.489,1.489L78.74,178.551z M88.669,168.623l-1.49-1.49l4.964-4.964
					l1.49,1.489L88.669,168.623z"/>
			</g>
			<g>
				<rect x="42.482" y="254.8" fill="#9D9D9D" width="2.107" height="3.513"/>
			</g>
		</g>
	</g>
	<g>
		<circle fill="#FBEE33" cx="98.635" cy="155.031" r="55.018"/>
	</g>
	<g>
		<circle fill="#F06277" cx="246.017" cy="155.031" r="72.27"/>
	</g>
	<g>
		<circle fill="#00796B" cx="158.345" cy="100.015" r="44.643"/>
	</g>
	<g>
		<circle fill="#A5D170" cx="193.988" cy="64.074" r="14.621"/>
	</g>
	<g>
		<circle fill="#A5D170" cx="184.623" cy="206.473" r="14.622"/>
	</g>
	<g>
		<circle fill="#A5D170" cx="214.223" cy="45.5" r="6.233"/>
	</g>
	<g>
		<circle fill="#A5D170" cx="161.154" cy="227.121" r="6.232"/>
	</g>
	<g>
		<circle fill="#A5D170" cx="344.437" cy="224.756" r="9.389"/>
	</g>
	<g>
		<circle fill="#A5D170" cx="353.388" cy="210.475" r="4.003"/>
	</g>
	<g>
		<circle fill="#A5D170" cx="406.777" cy="82.764" r="9.39"/>
	</g>
	<g>
		<circle fill="#A5D170" cx="390.351" cy="86.532" r="4.003"/>
	</g>
	<g>
		<circle fill="#A5D170" cx="44.459" cy="212.233" r="4.003"/>
	</g>
	<g>
		<circle fill="#A5D170" cx="273.89" cy="66.975" r="4.003"/>
	</g>
	<g>
		<path fill="#A5D170" d="M417.927,45.595c-0.17-3.295,2.359-6.104,5.651-6.277c3.295-0.171,6.104,2.358,6.274,5.653
			c0.175,3.291-2.355,6.103-5.651,6.275C420.913,51.418,418.099,48.887,417.927,45.595z"/>
	</g>
	<g>
		<circle fill="#A5D170" cx="80.13" cy="61.267" r="4.003"/>
	</g>
	<g>
		<circle fill="#FBEE33" cx="394.298" cy="155.031" r="55.016"/>
	</g>
	<g>
		<path fill="#00796B" d="M289.945,100.015c0,24.657,19.986,44.643,44.641,44.643c24.658,0,44.644-19.985,44.644-44.643
			c0-24.655-19.985-44.642-44.644-44.642C309.932,55.373,289.945,75.359,289.945,100.015z"/>
	</g>
	<g>
		<g>
			<path fill="#F7901E" d="M387.9,187.929l-10.449-10.462c-0.85-0.762-1.387-1.87-1.387-3.104v-38.667
				c0-2.295,1.858-4.156,4.153-4.156h28.717c1.233,0,2.346,0.533,3.11,1.388l15.43,15.428c-3.1-15.337-16.645-26.882-32.893-26.882
				c-18.536,0-33.563,15.021-33.563,33.558C361.02,171.277,372.566,184.825,387.9,187.929z"/>
		</g>
		<g>
			<path fill="#608EAD" d="M412.045,132.928c-0.765-0.854-1.877-1.388-3.11-1.388h-28.717c-2.295,0-4.153,1.861-4.153,4.156v38.667
				c0,1.233,0.537,2.342,1.387,3.104l10.449,10.462c2.16,0.431,4.391,0.66,6.682,0.66c18.527,0,33.555-15.025,33.555-33.558
				c0-2.285-0.225-4.521-0.662-6.676L412.045,132.928z"/>
		</g>
	</g>
	<g>
		<path fill="#2D3E50" d="M413.097,174.363c0,2.3-1.86,4.156-4.162,4.156h-28.717c-2.295,0-4.153-1.856-4.153-4.156v-38.667
			c0-2.295,1.858-4.156,4.153-4.156h28.717c2.302,0,4.162,1.861,4.162,4.156V174.363z"/>
	</g>
	<g>
		<path fill="#F0C319" d="M409.258,143.442c0,2.295-1.857,4.159-4.151,4.159h-20.931c-2.296,0-4.163-1.864-4.163-4.159v-3.795
			c0-2.292,1.867-4.151,4.163-4.151h20.931c2.294,0,4.151,1.859,4.151,4.151V143.442z"/>
	</g>
	<g>
		<path fill="#E67465" d="M391.553,168.449c0,2.715-2.198,4.916-4.914,4.916c-2.71,0-4.918-2.201-4.918-4.916
			c0-2.711,2.208-4.911,4.918-4.911C389.354,163.538,391.553,165.738,391.553,168.449z"/>
	</g>
	<g>
		<path fill="#ECF0F0" d="M389.209,167.58c0.483,0,0.873,0.395,0.873,0.869l0,0c0,0.488-0.39,0.875-0.873,0.875h-5.139
			c-0.48,0-0.879-0.387-0.879-0.875l0,0c0-0.475,0.398-0.869,0.879-0.869H389.209z"/>
	</g>
	<g>
		<path fill="#ECF0F0" d="M406.487,155.013h-2.573v-2.57c0-0.727-0.592-1.319-1.327-1.319c-0.719,0-1.313,0.593-1.313,1.319v2.57
			h-2.568c-0.74,0-1.318,0.59-1.318,1.317c0,0.725,0.578,1.32,1.318,1.32h2.568v2.57c0,0.729,0.595,1.321,1.313,1.321
			c0.735,0,1.327-0.593,1.327-1.321v-2.57h2.573c0.727,0,1.316-0.596,1.316-1.32C407.804,155.603,407.214,155.013,406.487,155.013z"
			/>
	</g>
	<g>
		<path fill="#ECF0F0" d="M389.138,157.426l-1.272-1.143l1.145-1.268c0.319-0.35,0.293-0.906-0.061-1.23
			c-0.367-0.316-0.911-0.287-1.237,0.068l-1.137,1.267l-1.262-1.143c-0.36-0.32-0.914-0.289-1.235,0.063
			c-0.321,0.363-0.287,0.915,0.065,1.229l1.269,1.14l-1.136,1.267c-0.325,0.364-0.297,0.911,0.058,1.23
			c0.362,0.327,0.91,0.296,1.236-0.063l1.129-1.266l1.272,1.137c0.354,0.327,0.904,0.295,1.229-0.06
			C389.524,158.299,389.489,157.748,389.138,157.426z"/>
	</g>
	<g>
		<g>
			<path fill="#ECF0F0" d="M405.21,168.718c0.483,0,0.868,0.395,0.868,0.874l0,0c0,0.481-0.385,0.875-0.868,0.875h-5.143
				c-0.484,0-0.874-0.394-0.874-0.875l0,0c0-0.479,0.39-0.874,0.874-0.874H405.21z"/>
		</g>
		<g>
			<path fill="#ECF0F0" d="M405.21,166.445c0.483,0,0.868,0.387,0.868,0.866l0,0c0,0.489-0.385,0.871-0.868,0.871h-5.143
				c-0.484,0-0.874-0.382-0.874-0.871l0,0c0-0.479,0.39-0.866,0.874-0.866H405.21z"/>
		</g>
	</g>
	<g>
		<g>
			<g>
				<path fill="#DEE78D" d="M190.539,99.039c0,17.257-13.989,31.251-31.247,31.251c-17.259,0-31.256-13.994-31.256-31.251
					c0-17.26,13.997-31.253,31.256-31.253C176.55,67.786,190.539,81.779,190.539,99.039z"/>
			</g>
		</g>
	</g>
	<g>
		<g>
			<path fill="#DEE78D" d="M325.801,130.016l-8.068-8.185c-0.229-0.106-0.39-0.339-0.39-0.603v-37.58
				c0-0.37,0.299-0.668,0.667-0.668h3.523v-0.883h2.093v-1.649h5.633c0.296-0.407,0.812-0.881,0.945-1.154
				c0.267-0.579,1.858-1.098,4.185-1.148v-0.007h0.012c0.068,0,0.126,0,0.191,0c0.058,0,0.123,0,0.185,0h0.016v0.007
				c2.297,0.051,3.881,0.563,4.175,1.13l1.204,1.173h5.378l1.646,1.649h0.454l0.87,0.883h2.65c0.269,0,0.502,0.162,0.606,0.393
				l13.962,14.037c-1.328-16.041-14.767-28.646-31.146-28.646c-17.267,0-31.254,13.994-31.254,31.255
				C303.338,114.229,312.818,126.219,325.801,130.016z"/>
		</g>
		<g>
			<path fill="#C6C6C5" d="M351.775,83.373c-0.104-0.23-0.338-0.393-0.606-0.393h-2.65l-0.87-0.883h-0.454l-1.646-1.649h-5.378
				l-1.204-1.173c-0.294-0.566-1.878-1.079-4.175-1.13v-0.007h-0.01c-0.067,0-0.133,0-0.19,0c-0.065,0-0.123,0-0.191,0h-0.012v0.007
				c-2.326,0.051-3.918,0.569-4.185,1.148c-0.134,0.273-0.649,0.747-0.945,1.154h-5.633v1.649h-2.093v0.883h-3.523
				c-0.368,0-0.667,0.298-0.667,0.668v37.58c0,0.264,0.161,0.496,0.39,0.603l8.068,8.185c2.793,0.814,5.737,1.251,8.791,1.251
				c17.258,0,31.244-13.991,31.244-31.248c0-0.881-0.039-1.749-0.099-2.608L351.775,83.373z"/>
		</g>
	</g>
	<g>
		<g>
			<rect x="321.65" y="90.273" fill="#E67465" width="3.662" height="3.069"/>
		</g>
		<g>
			<rect x="321.65" y="95.965" fill="#E67465" width="3.662" height="3.073"/>
		</g>
		<g>
			<rect x="321.469" y="101.664" fill="#E67465" width="3.659" height="3.07"/>
		</g>
		<g>
			<rect x="321.65" y="107.365" fill="#E67465" width="3.662" height="3.068"/>
		</g>
		<g>
			<rect x="321.65" y="113.059" fill="#E67465" width="3.662" height="3.069"/>
		</g>
	</g>
	<g>
		<g>
			<rect x="328.336" y="90.273" fill="#C6C9D0" width="19.197" height="3.069"/>
		</g>
		<g>
			<rect x="328.336" y="95.965" fill="#C6C9D0" width="19.197" height="3.073"/>
		</g>
		<g>
			<rect x="328.162" y="101.664" fill="#C6C9D0" width="19.188" height="3.07"/>
		</g>
		<g>
			<rect x="328.336" y="107.365" fill="#C6C9D0" width="19.197" height="3.068"/>
		</g>
	</g>
	<g>
		<path fill="#ECF0F0" d="M351.169,82.98H318.01c-0.368,0-0.667,0.271-0.667,0.607v34.14c0,0.337,0.299,0.605,0.667,0.605h33.159
			c0.37,0,0.664-0.269,0.664-0.605v-34.14C351.833,83.251,351.539,82.98,351.169,82.98z"/>
	</g>
	<g>
		<rect x="328.336" y="113.059" fill="#ECF0F0" width="19.197" height="3.069"/>
	</g>
	<g>
		<rect x="328.336" y="89.607" fill="#E67465" width="19.197" height="4.787"/>
	</g>
	<g>
		<rect x="328.336" y="98.49" fill="#F0C319" width="19.197" height="4.793"/>
	</g>
	<g>
		<rect x="328.162" y="107.383" fill="#965CA5" width="19.188" height="4.791"/>
	</g>
	<g>
		<rect x="321.65" y="89.607" fill="#E67465" width="3.662" height="4.787"/>
	</g>
	<g>
		<rect x="321.65" y="98.49" fill="#F0C319" width="3.662" height="4.793"/>
	</g>
	<g>
		<rect x="321.469" y="107.383" fill="#965CA5" width="3.659" height="4.791"/>
	</g>
	<g>
		<path fill="#2D3E50" d="M345.549,81.68v-1.809h-5.634c-0.019-0.03-0.044-0.062-0.065-0.093h-10.523
			c-0.021,0.031-0.046,0.063-0.067,0.093h-5.633v1.809h-2.093v4.715h26.115V81.68H345.549z"/>
	</g>
	<g>
		<g>
			<g>
				<path fill="#FFFFFF" d="M131.115,156.437c0,18.528-15.021,33.556-33.558,33.556c-18.526,0-33.551-15.027-33.551-33.556
					c0-18.535,15.024-33.558,33.551-33.558C116.094,122.879,131.115,137.901,131.115,156.437z"/>
			</g>
		</g>
		<g>
			<path fill="#E67465" d="M116.901,149.55l-18.456,6.592l2.482-19.442c-2.099-0.267-4.277-0.202-6.462,0.252
				c-10.601,2.193-17.419,12.576-15.218,23.176c2.191,10.596,12.574,17.411,23.176,15.211c10.592-2.194,17.412-12.568,15.207-23.177
				C117.443,151.265,117.2,150.393,116.901,149.55z"/>
		</g>
		<g>
			<path fill="#ECF0F0" d="M117.918,142.399c-3.234-5.229-8.527-8.397-14.174-9.12l-2.492,19.43l18.455-6.588l0,0
				C119.251,144.835,118.655,143.595,117.918,142.399z"/>
		</g>
	</g>
	<g>
		<g>
			<g>
				<path fill="#FFFFFF" d="M300.223,155.384c0,29.745-24.131,53.863-53.871,53.863c-29.748,0-53.855-24.118-53.855-53.863
					c0-29.739,24.107-53.854,53.855-53.854C276.092,101.529,300.223,125.645,300.223,155.384z"/>
			</g>
		</g>
	</g>
	<g>
		<path fill="#FBEE33" d="M261.072,149.736c0,5.521-2.184,10.617-5.764,13.855c0.565,0.29,1.196,0.584,1.766,0.85
			c2.886,1.354,6.887,3.24,9.775,7.01h14.717c0-14.803-12.779-15.047-15.997-18.791l-0.384-2.039
			c4.068-2.123,6.929-7.128,6.929-12.967c0-7.758-5.049-14.051-11.272-14.051c-4.905,0-9.063,3.907-10.614,9.355
			C256.465,134.942,261.072,141.7,261.072,149.736z"/>
	</g>
	<g>
		<path fill="#00796B" d="M235.192,149.736c0,5.89,2.911,10.926,7.032,13.015l-0.335,1.793c-2.935,3.938-16.153,3.933-16.153,18.986
			h20.582h0.294v0.001h20.583c0-14.798-12.779-15.044-15.999-18.79l-0.384-2.039c4.067-2.124,6.927-7.125,6.927-12.966
			c0-7.758-5.049-14.052-11.271-14.052C240.242,135.685,235.192,141.979,235.192,149.736z"/>
	</g>
	<g>
		<path fill="#ECF0F0" d="M235.855,164.441c0.554-0.256,1.192-0.56,1.768-0.854c-3.584-3.231-5.761-8.319-5.761-13.851
			c0-8.036,4.607-14.799,10.845-16.78c-1.549-5.445-5.709-9.354-10.611-9.354c-6.226,0-11.275,6.291-11.275,14.052
			c0,5.889,2.91,10.924,7.034,13.016l-0.337,1.793c-2.935,3.938-16.153,3.934-16.153,18.988h14.718
			C228.965,167.679,232.972,165.795,235.855,164.441z"/>
	</g>
	<g>
		<g>
			<path fill="#F9ED23" d="M158.26,80.319h-0.003c-7.204,0.179-13.814,4.865-13.814,13.702c0,8.285,7.879,11.178,8.184,14.492
				h11.262c0.303-3.314,8.183-6.207,8.183-14.492C172.07,85.185,165.463,80.498,158.26,80.319z"/>
		</g>
		<g>
			<path fill="#ECF0F0" d="M158.26,118.333c3.346,0,6.065-2.882,6.065-6.438H152.19C152.19,115.451,154.906,118.333,158.26,118.333z
				"/>
		</g>
	</g>
</g>
</svg>
