<?xml version="1.0" encoding="utf-8"?>
<!-- Generator: Adobe Illustrator 16.0.0, SVG Export Plug-In . SVG Version: 6.00 Build 0)  -->
<!DOCTYPE svg PUBLIC "-//W3C//DTD SVG 1.1//EN" "http://www.w3.org/Graphics/SVG/1.1/DTD/svg11.dtd">
<svg version="1.1" id="Layer_1" xmlns="http://www.w3.org/2000/svg" xmlns:xlink="http://www.w3.org/1999/xlink" x="0px" y="0px"
	 width="500px" height="720px" viewBox="0 0 500 720" enable-background="new 0 0 500 720" xml:space="preserve">
<g>
	<path opacity="0.06" fill="#010101" d="M306.271,462.458l26.822,26.701l33.378-33.527l-26.823-26.703L306.271,462.458z
		 M279.568,489.28l26.822,26.703l20.027-20.119l-26.822-26.701L279.568,489.28z M313.097,522.659l26.822,26.701l33.379-33.527
		l-26.822-26.703L313.097,522.659z M373.178,462.308l-20.026,20.117l26.822,26.701L400,489.009L373.178,462.308z"/>
	<path opacity="0.06" fill="#010101" d="M303.04,247.28l-7.637,2.947l2.948,7.639l7.636-2.947L303.04,247.28z M318.315,241.386
		l-7.637,2.947l2.947,7.639l7.637-2.947L318.315,241.386z M333.59,235.491l-7.636,2.947l2.947,7.637l7.636-2.947L333.59,235.491z
		 M330.911,205.812l-3.818,1.475l-2.947-7.639l-7.637,2.947l2.947,7.639l-30.55,11.791l-2.948-7.639l-7.639,2.949l2.948,7.637
		l-3.819,1.475c-4.24,1.635-6.273,6.371-4.652,10.57l20.598,53.477c1.621,4.197,6.343,6.326,10.584,4.689l53.462-20.635
		c4.199-1.619,6.311-6.385,4.69-10.584l-20.635-53.463C339.875,206.302,335.11,204.19,330.911,205.812z M354.493,266.911
		l-53.463,20.635l-16.214-42.006l53.464-20.635L354.493,266.911z"/>
	<path opacity="0.06" fill="#010101" d="M134.688,298.237l27.495,30.896c-2.07,0.824-4.059,1.939-5.824,3.512
		c-8.291,7.377-9.029,20.021-1.65,28.314c7.378,8.291,20.023,9.027,28.314,1.65c7.693-6.846,8.798-18.271,2.965-26.502l0.165-0.148
		l-32.587-36.623l13.318-11.852l-8.889-9.988L134.688,298.237z"/>
	<path opacity="0.06" fill="#010101" d="M200.107,498.077l-16.486-4.789c-0.326-5.055-3.704-9.627-8.832-11.117
		c-5.125-1.488-10.425,0.564-13.407,4.658l-16.487-4.787c-4.344-1.262-8.921,1.26-10.182,5.596l-16.033,55.213
		c-1.26,4.338,1.256,8.918,5.599,10.18l55.213,16.035c4.336,1.26,8.918-1.262,10.178-5.598l16.034-55.213
		C206.962,503.919,204.444,499.335,200.107,498.077z M172.5,490.058c2.168,0.631,3.429,2.922,2.798,5.09
		c-0.629,2.17-2.921,3.43-5.089,2.799c-2.169-0.629-3.429-2.92-2.8-5.09C168.039,490.688,170.331,489.429,172.5,490.058z
		 M164.352,547.563l-27.605-8.018l2.291-7.889l27.604,8.018L164.352,547.563z M180.765,535.224l-39.437-11.453l2.291-7.889
		l39.436,11.455L180.765,535.224z M185.346,519.448l-39.437-11.453l2.29-7.887l39.438,11.453L185.346,519.448z"/>
	<path opacity="0.06" fill="#010101" d="M85.593,180.39l-5.548-2.096l-5.235,13.869l0.027,0.01l-9.454,24.955
		c-1.152,3.051,0.399,6.488,3.453,7.643l49.929,18.852l2.095-5.549l-49.93-18.852L85.593,180.39z M143.163,195.788l-22.192-8.379
		l-3.452-7.643l-16.643-6.283c-3.053-1.152-6.462,0.412-7.614,3.463l-12.595,33.275c-1.151,3.049,0.399,6.488,3.454,7.641
		l44.38,16.758c3.05,1.152,6.49-0.402,7.642-3.453l10.474-27.736C147.769,200.38,146.214,196.94,143.163,195.788z M90.037,210.589
		l18.765-11.93l4.985,16.176l10.086-5.73l4.998,16.146L90.037,210.589z"/>
</g>
</svg>
