<?xml version="1.0" encoding="utf-8"?>
<!-- Generator: Adobe Illustrator 16.0.0, SVG Export Plug-In . SVG Version: 6.00 Build 0)  -->
<!DOCTYPE svg PUBLIC "-//W3C//DTD SVG 1.1//EN" "http://www.w3.org/Graphics/SVG/1.1/DTD/svg11.dtd">
<svg version="1.1" id="Layer_1" xmlns="http://www.w3.org/2000/svg" xmlns:xlink="http://www.w3.org/1999/xlink" x="0px" y="0px"
	 width="382.051px" height="381.995px" viewBox="58.989 60.009 382.051 381.995"
	 enable-background="new 58.989 60.009 382.051 381.995" xml:space="preserve">
<g id="Layer_x0020_1">
	<path fill="#F5F5F5" d="M272.012,103.01v290.975l-172.998-29.99V133.001L272.012,103.01z M280.231,136.601h114.888
		c6.35,0,7.568,1.248,7.568,7.569v208.628c0,6.321-1.219,7.568-7.568,7.568H280.231v-19.672h43.852v-30.218h-43.852v-9.07h43.852
		V271.16h-43.852v-9.07h43.852v-30.246h-43.852v-9.071h43.852v-30.217h-43.852v-9.071h43.852V153.24h-43.852V136.601z
		 M59.045,442.004h381.938l0.057-381.995H58.989L59.045,442.004z"/>
	<polygon fill="#F5F5F5" points="202.081,194.484 186.32,230.541 174.075,196.667 154.374,197.545 173.933,246.896 151.908,295.17 
		171.269,296.615 186.802,261.892 201.259,298.629 223.539,299.848 199.388,246.698 222.49,193.01 	"/>
	<polygon fill="#F5F5F5" points="333.154,340.694 383.043,340.694 383.043,310.477 333.154,310.477 	"/>
	<polygon fill="#F5F5F5" points="333.154,301.406 383.043,301.406 383.043,271.16 333.154,271.16 	"/>
	<polygon fill="#F5F5F5" points="333.154,262.09 383.043,262.09 383.043,231.844 333.154,231.844 	"/>
	<polygon fill="#F5F5F5" points="333.154,183.485 383.043,183.485 383.043,153.24 333.154,153.24 	"/>
	<polygon fill="#F5F5F5" points="333.154,222.773 383.043,222.773 383.043,192.557 333.154,192.557 	"/>
</g>
</svg>
