<?xml version="1.0" encoding="utf-8"?>
<!-- Generator: Adobe Illustrator 16.0.0, SVG Export Plug-In . SVG Version: 6.00 Build 0)  -->
<!DOCTYPE svg PUBLIC "-//W3C//DTD SVG 1.1//EN" "http://www.w3.org/Graphics/SVG/1.1/DTD/svg11.dtd">
<svg version="1.1" id="Layer_1" xmlns="http://www.w3.org/2000/svg" xmlns:xlink="http://www.w3.org/1999/xlink" x="0px" y="0px"
	 width="210px" height="30px" viewBox="0 0 210 30" enable-background="new 0 0 210 30" xml:space="preserve">
<g>
	<path fill="#FFFFFF" d="M11.006,9.057c0-1.631,1.563-2.531,3.965-2.531c1.836,0,6.473,0.656,9.113,2.258l1.703-3.613
		c-2.254-1.494-7.344-2.5-10.504-2.5c-5.281,0-8.861,2.605-8.861,6.771c0,8.649,13.131,5.628,13.131,11.042
		c0,1.877-1.705,2.956-4.551,2.956c-2.609,0-5.734-1.251-8.234-3.542L5,23.439c2.5,2.291,6.109,3.854,9.932,3.854
		c5.352,0,9.168-2.674,9.168-7.015C24.133,11.527,11.006,14.374,11.006,9.057z"/>
	<path fill="#FFFFFF" d="M39.76,2.738c-7.252,0-12.881,5.281-12.881,12.261c0,6.947,5.629,12.331,12.881,12.331
		c7.262,0,12.887-5.384,12.887-12.331C52.646,8.051,47.021,2.738,39.76,2.738z M39.795,23.648c-4.756,0-8.75-3.819-8.75-8.649
		c0-4.829,3.965-8.579,8.75-8.579c4.764,0,8.652,3.75,8.652,8.579C48.447,19.829,44.559,23.648,39.795,23.648z"/>
	<path fill="#FFFFFF" d="M66.885,23.512c-4.863,0-8.684-3.79-8.684-8.583c0-4.792,3.82-8.544,8.684-8.544
		c2.461,0,5,1.18,6.777,3.092l2.391-2.988c-2.361-2.324-5.799-3.75-9.238-3.75c-7.191,0-12.781,5.313-12.781,12.228
		c0,6.982,5.527,12.364,12.641,12.364c3.438,0,6.949-1.563,9.41-3.994l-2.422-2.71C71.818,22.397,69.314,23.512,66.885,23.512z"/>
	<rect x="80.254" y="2.846" fill="#FFFFFF" width="4.096" height="24.309"/>
	<path fill="#FFFFFF" d="M98.311,2.846L87.584,27.154h4.266l2.328-5.489h12.258l2.326,5.489h4.375L102.51,2.846H98.311z
		 M95.713,18.022l4.578-10.802l4.582,10.802H95.713z"/>
	<polygon fill="#FFFFFF" points="120.467,2.846 116.373,2.846 116.373,27.154 130.986,27.154 130.986,23.439 120.467,23.439 	"/>
	<path fill="#FFFFFF" d="M145.752,23.512c-4.863,0-8.688-3.79-8.688-8.583c0-4.792,3.824-8.544,8.688-8.544
		c2.461,0,5,1.18,6.773,3.092l2.389-2.988c-2.359-2.324-5.799-3.75-9.238-3.75c-7.189,0-12.775,5.313-12.775,12.228
		c0,6.982,5.525,12.364,12.637,12.364c3.438,0,6.953-1.563,9.414-3.994l-2.426-2.71C150.68,22.397,148.178,23.512,145.752,23.512z"
		/>
	<polygon fill="#FFFFFF" points="200.967,2.846 200.967,20.313 187.945,2.846 183.916,2.846 183.916,27.154 188.018,27.154 
		188.018,9.721 200.967,27.154 205,27.154 205,2.846 	"/>
	<polygon fill="#FFFFFF" points="157.979,26.617 163.521,26.617 167.188,22.709 164.434,19.552 	"/>
	<polygon fill="#FFFFFF" points="168.682,22.652 172.51,26.617 178.018,26.617 171.525,19.552 	"/>
	<polygon fill="#FFFFFF" points="163.525,10.17 158.133,10.17 167.998,21.567 181.729,6.264 167.92,15.2 	"/>
</g>
</svg>
